<?xml version="1.0" encoding="iso-8859-1"?>
<!-- Uploaded to: SVG Repo, www.svgrepo.com, Generator: SVG Repo Mixer Tools -->
<svg fill="#000000" height="800px" width="800px" version="1.1" id="Layer_1" xmlns="http://www.w3.org/2000/svg" xmlns:xlink="http://www.w3.org/1999/xlink" 
	 viewBox="0 0 512.001 512.001" xml:space="preserve">
<g>
	<g>
		<path d="M435.105,1.582c-8.94-3.475-19.104-1.111-25.592,5.964L68.178,379.911c-6.237,6.803-7.863,16.648-4.147,25.097
			c3.717,8.448,12.074,13.902,21.302,13.902h15.515h279.274c12.833,0,23.273,10.44,23.273,23.273
			c0,12.834-10.439,23.273-23.273,23.273H85.334c-12.853,0-23.273,10.42-23.273,23.273s10.42,23.273,23.273,23.273h294.789
			c38.498,0,69.818-31.319,69.818-69.818V23.273C449.941,13.675,444.05,5.061,435.105,1.582z M403.395,372.365h-23.273H138.239
			v-0.002L403.395,83.101V372.365z"/>
	</g>
</g>
</svg>